<svg width="39" height="38" viewBox="0 0 39 38" fill="none"
  xmlns="http://www.w3.org/2000/svg">
  <rect x="0.5" width="38" height="38" rx="19" fill="#28B18F"/>
  <path d="M12.5957 11.4492C14.3535 9.75 16.8047 8.64648 19.5098 8.64648C24.7832 8.64648 29.1094 12.6406 29.7539 17.5625H31.1699C32.0195 17.5625 32.2539 18.2559 31.7266 18.9688L29.1484 22.5332C28.7285 23.0996 28.0645 23.1094 27.6445 22.5332L25.0664 18.9688C24.5488 18.2559 24.793 17.5625 25.623 17.5625H27.1465C26.5312 14.0273 23.416 11.2148 19.5098 11.2148C17.4688 11.2148 15.6133 12.0352 14.2656 13.3438C13.5234 13.9395 12.7715 13.793 12.3516 13.2754C11.9414 12.7871 11.9512 12.0059 12.5957 11.4492ZM7.26367 18.9395L9.85156 15.375C10.2715 14.8086 10.9355 14.7988 11.3457 15.375L13.9336 18.9492C14.4512 19.6621 14.1973 20.3457 13.3672 20.3457H11.873C12.4883 23.8906 15.6035 26.7031 19.5098 26.7031C21.5605 26.7031 23.4258 25.873 24.7637 24.5645C25.5059 23.9688 26.248 24.1055 26.6777 24.6328C27.0781 25.1211 27.0684 25.9023 26.4336 26.4492C24.6758 28.1582 22.2148 29.2715 19.5098 29.2715C14.2363 29.2715 9.91016 25.2676 9.26562 20.3457H7.82031C6.98047 20.3457 6.74609 19.6523 7.26367 18.9395Z" fill="white"/>
</svg>
